<?xml version="1.0"?>
<svg xmlns="http://www.w3.org/2000/svg" width="512" height="512" viewBox="0 0 512 512"><g><path d="M160,216H32A24.032,24.032,0,0,0,8,240V480a24.032,24.032,0,0,0,24,24H160a24.032,24.032,0,0,0,24-24V240A24.032,24.032,0,0,0,160,216Zm-43.1,16-2.67,8H77.77l-2.67-8ZM168,480a8.011,8.011,0,0,1-8,8H32a8.011,8.011,0,0,1-8-8V240a8.011,8.011,0,0,1,8-8H58.23l6.18,18.53A8,8,0,0,0,72,256h48a8,8,0,0,0,7.59-5.47L133.77,232H160a8.011,8.011,0,0,1,8,8Z"/><path d="M72,464H40a8,8,0,0,0,0,16H72a8,8,0,0,0,0-16Z"/><path d="M104,464H96a8,8,0,0,0,0,16h8a8,8,0,0,0,0-16Z"/><path d="M440,312H424V280.97A144.156,144.156,0,0,0,504,152C504,72.6,439.4,8,360,8S216,72.6,216,152a144.156,144.156,0,0,0,80,128.97V312H280a32.042,32.042,0,0,0-32,32v24a8,8,0,0,0,8,8H464a8,8,0,0,0,8-8V344A32.042,32.042,0,0,0,440,312ZM232,152A128,128,0,1,1,360,280,128.144,128.144,0,0,1,232,152Zm80,160V287.76a143.926,143.926,0,0,0,96,0V312Zm64,16v8H344v-8Zm80,32H264V344a16.021,16.021,0,0,1,16-16h48v16a8,8,0,0,0,8,8h48a8,8,0,0,0,8-8V328h48a16.021,16.021,0,0,1,16,16Z"/><path d="M432,152a72,72,0,1,0-72,72A72.081,72.081,0,0,0,432,152Zm-128,0a56,56,0,1,1,56,56A56.063,56.063,0,0,1,304,152Z"/><path d="M408,152a48,48,0,1,0-48,48A48.053,48.053,0,0,0,408,152Zm-80,0a32,32,0,1,1,32,32A32.036,32.036,0,0,1,328,152Z"/><path d="M152,280H40a8,8,0,0,0-8,8v88a8,8,0,0,0,8,8H152a8,8,0,0,0,8-8V288A8,8,0,0,0,152,280ZM80,368a16,16,0,0,1,32,0Zm8-48a8,8,0,1,1,8,8A8.011,8.011,0,0,1,88,320Zm56,48H128a32.041,32.041,0,0,0-17.8-28.67,24,24,0,1,0-28.4,0A32.041,32.041,0,0,0,64,368H48V296h96Z"/><path d="M152,392H96a8,8,0,0,0,0,16h56a8,8,0,0,0,0-16Z"/><path d="M152,416H128a8,8,0,0,0,0,16h24a8,8,0,0,0,0-16Z"/><path d="M360,384a8,8,0,0,0-8,8v48H208a8,8,0,0,0,0,16H360a8,8,0,0,0,8-8V392A8,8,0,0,0,360,384Z"/><circle cx="96" cy="192" r="8"/><path d="M112,182.111a8,8,0,0,0,5.339-13.961,32,32,0,0,0-42.672,0,8,8,0,1,0,10.672,11.922,16,16,0,0,1,21.328,0A7.975,7.975,0,0,0,112,182.111Z"/><path d="M69.335,162.184a40,40,0,0,1,53.33,0,8,8,0,1,0,10.67-11.922,56,56,0,0,0-74.67,0,8,8,0,0,0,10.67,11.922Z"/></g></svg>
