<?xml version="1.0" encoding="iso-8859-1"?>
<!-- Generator: Adobe Illustrator 19.0.0, SVG Export Plug-In . SVG Version: 6.00 Build 0)  -->
<svg version="1.1" id="Capa_1" xmlns="http://www.w3.org/2000/svg" xmlns:xlink="http://www.w3.org/1999/xlink" x="0px" y="0px"
	 viewBox="0 0 512 512" style="enable-background:new 0 0 512 512;" xml:space="preserve">
<g>
	<g>
		<path d="M132.859,443.276c-11.41-10.757-18.54-26.002-18.54-42.876c0-16.365,6.696-31.188,17.495-41.877
			c1.543-1.528,0.456-4.157-1.716-4.157H28.868C12.924,354.366,0,367.29,0,383.234v35.364c0,15.948,12.929,28.878,28.878,28.878
			h102.31C133.388,447.475,134.461,444.786,132.859,443.276z"/>
	</g>
</g>
<g>
	<g>
		<path d="M173.266,371.472c-15.945,0-28.918,12.982-28.918,28.928c0,15.945,12.972,28.918,28.918,28.918
			c15.955,0,28.928-12.972,28.928-28.918C202.194,384.454,189.221,371.472,173.266,371.472z"/>
	</g>
</g>
<g>
	<g>
		<path d="M487.37,104.654c-1.001,0-1.884,0.656-2.173,1.614l-34.98,115.81c-0.44,1.457,0.651,2.927,2.173,2.927h34.98
			c13.603,0,24.63-11.028,24.63-24.63v-71.089C512,115.682,500.972,104.654,487.37,104.654z"/>
	</g>
</g>
<g>
	<g>
		<path d="M454.131,73.021c-3.971-5.32-10.304-8.497-16.942-8.497H91.809c-11.656,0-21.138,9.483-21.138,21.138v156.323
			c0,11.656,9.483,21.138,21.138,21.138h80.92l-28.794,81.355c-0.724,2.046,1.397,3.97,3.344,3.009
			c7.84-3.869,16.667-6.044,25.986-6.044c23.904,0,44.534,14.295,53.774,34.793c0.896,1.988,3.774,1.839,4.501-0.217l39.961-112.896
			h119.276c9.288,0,17.621-6.219,20.263-15.122l6.846-23.057l37.461-126.179l2.103-7.085
			C459.342,85.318,458.1,78.341,454.131,73.021z M145.739,123.145c-0.05,0.49-0.13,0.981-0.22,1.461
			c-0.1,0.48-0.22,0.961-0.36,1.421c-0.149,0.47-0.31,0.931-0.5,1.391c-0.189,0.45-0.399,0.891-0.631,1.321
			c-0.229,0.43-0.479,0.861-0.751,1.261c-0.27,0.41-0.561,0.811-0.871,1.191s-0.65,0.751-0.99,1.091
			c-0.351,0.35-0.722,0.681-1.102,1.001c-0.38,0.3-0.781,0.601-1.181,0.871c-0.41,0.27-0.831,0.521-1.272,0.751
			c-0.43,0.23-0.871,0.44-1.32,0.631c-0.45,0.18-0.921,0.35-1.381,0.49c-0.471,0.15-0.951,0.27-1.432,0.36
			c-0.479,0.1-0.971,0.17-1.451,0.22c-0.489,0.05-0.99,0.08-1.48,0.08s-0.981-0.03-1.471-0.08s-0.981-0.12-1.461-0.22
			c-0.48-0.09-0.961-0.21-1.422-0.36c-0.47-0.14-0.931-0.31-1.391-0.49c-0.45-0.19-0.891-0.4-1.321-0.631
			c-0.43-0.231-0.86-0.48-1.261-0.751c-0.41-0.27-0.811-0.571-1.19-0.871c-0.38-0.32-0.751-0.651-1.092-1.001
			c-0.35-0.34-0.681-0.711-1.001-1.091c-0.3-0.38-0.601-0.781-0.87-1.191c-0.271-0.4-0.521-0.831-0.751-1.261
			s-0.44-0.871-0.632-1.321c-0.189-0.46-0.35-0.921-0.5-1.391c-0.14-0.46-0.26-0.941-0.359-1.421c-0.09-0.48-0.17-0.971-0.22-1.461
			c-0.051-0.49-0.07-0.981-0.07-1.471s0.02-0.991,0.07-1.481c0.05-0.48,0.13-0.971,0.22-1.451c0.1-0.48,0.22-0.961,0.359-1.431
			c0.15-0.46,0.311-0.931,0.5-1.381c0.19-0.45,0.4-0.901,0.632-1.331c0.229-0.43,0.479-0.851,0.751-1.261
			c0.27-0.41,0.57-0.811,0.87-1.181c0.32-0.38,0.651-0.751,1.001-1.101c0.341-0.35,0.712-0.681,1.092-0.991s0.78-0.601,1.19-0.871
			c0.4-0.27,0.831-0.531,1.261-0.761c0.431-0.23,0.871-0.44,1.321-0.621c0.46-0.19,0.921-0.36,1.391-0.5
			c0.461-0.14,0.941-0.26,1.422-0.36c0.479-0.09,0.971-0.17,1.461-0.22c0.971-0.1,1.972-0.1,2.952,0
			c0.48,0.05,0.972,0.13,1.451,0.22c0.48,0.1,0.961,0.22,1.432,0.36c0.46,0.14,0.931,0.31,1.381,0.5
			c0.449,0.18,0.891,0.39,1.32,0.621c0.44,0.23,0.861,0.49,1.272,0.761c0.399,0.27,0.801,0.56,1.181,0.871
			c0.38,0.311,0.751,0.641,1.102,0.991c0.34,0.35,0.681,0.721,0.99,1.101c0.311,0.37,0.602,0.771,0.871,1.181
			c0.271,0.41,0.521,0.831,0.751,1.261c0.23,0.43,0.44,0.881,0.631,1.331c0.19,0.45,0.351,0.921,0.5,1.381
			c0.141,0.47,0.261,0.951,0.36,1.431c0.09,0.48,0.17,0.971,0.22,1.451c0.05,0.49,0.07,0.991,0.07,1.481
			S145.788,122.654,145.739,123.145z"/>
	</g>
</g>
<g>
</g>
<g>
</g>
<g>
</g>
<g>
</g>
<g>
</g>
<g>
</g>
<g>
</g>
<g>
</g>
<g>
</g>
<g>
</g>
<g>
</g>
<g>
</g>
<g>
</g>
<g>
</g>
<g>
</g>
</svg>
