<svg id="Layer_1" enable-background="new 0 0 512 512" height="512" viewBox="0 0 512 512" width="512" xmlns="http://www.w3.org/2000/svg"><g><path d="m386 112h-340c-25.364 0-46-20.636-46-46v-20c0-25.364 20.636-46 46-46h340c25.364 0 46 20.636 46 46v20c0 25.364-20.636 46-46 46z"/><circle cx="216" cy="272" r="48"/><path d="m387 144h-342c-2.761 0-5 2.239-5 5v57.296c0 97.286 78.216 177.432 175.501 177.703 97.275.271 176.499-78.786 176.499-175.999v-59c0-2.761-2.239-5-5-5zm-171 208c-44.112 0-80-35.888-80-80s35.888-80 80-80 80 35.888 80 80-35.888 80-80 80z"/><path d="m400 512c-8.837 0-16-7.164-16-16s7.163-16 16-16c44.112 0 80-35.888 80-80 0-8.836 7.163-16 16-16s16 7.164 16 16c0 61.757-50.243 112-112 112z"/><path d="m400 456c-8.837 0-16-7.164-16-16s7.163-16 16-16c13.233 0 24-10.767 24-24 0-8.836 7.163-16 16-16s16 7.164 16 16c0 30.878-25.121 56-56 56z"/><path d="m384.02 400c-8.836 0-16.005-7.164-16.005-16s7.159-16 15.995-16h.01c8.837 0 16 7.164 16 16s-7.164 16-16 16z"/></g></svg>