<svg id="Capa_1" enable-background="new 0 0 510 510" height="512" viewBox="0 0 510 510" width="512" xmlns="http://www.w3.org/2000/svg"><g><path d="m240 0h30v90h-30z"/><path d="m415.874 180h90v30h-90z" transform="matrix(.981 -.196 .196 .981 -29.29 94.159)"/><path d="m361.82 63.18h90v30h-90z" transform="matrix(.707 -.707 .707 .707 63.873 310.564)"/><path d="m34.126 150h30.001v90h-30.001z" transform="matrix(.196 -.981 .981 .196 -151.721 204.93)"/><path d="m88.181 33.18h30v90h-30z" transform="matrix(.707 -.707 .707 .707 -25.061 95.858)"/><path d="m60 462.522v47.478h390v-47.478c0-20.689-16.833-37.522-37.522-37.522h-314.956c-20.69 0-37.522 16.833-37.522 37.522z"/><g><path d="m366.548 174.444c-3.354-15.372-11.95-29.272-24.203-39.142-12.254-9.867-27.668-15.302-43.402-15.302h-91.926c-32.869 0-61.405 23.394-67.851 55.625l-43.874 219.375h144.708v-36.635c-31.412-6.887-55-34.916-55-68.365 0-38.599 31.402-70 70-70 38.599 0 70 31.401 70 70 0 33.449-23.588 61.478-55 68.365v36.635s143.172.073 144.708.177z"/><circle cx="255" cy="290" r="40"/></g></g></svg>