<?xml version="1.0" encoding="iso-8859-1"?>
<!-- Generator: Adobe Illustrator 19.0.0, SVG Export Plug-In . SVG Version: 6.00 Build 0)  -->
<svg version="1.1" id="Capa_1" xmlns="http://www.w3.org/2000/svg" xmlns:xlink="http://www.w3.org/1999/xlink" x="0px" y="0px"
	 viewBox="0 0 512 512" style="enable-background:new 0 0 512 512;" xml:space="preserve">
<g>
	<g>
		<path d="M448,0H310.154c-19.002,0-34.462,15.459-34.462,34.462v70.394c-18.554,3.73-34.642,14.343-45.486,29.052H73.846
			c-24.431,0-44.308,19.876-44.308,44.308s19.876,44.308,44.308,44.308h109.648l-56.646,56.645
			c-8.369,8.369-12.977,19.495-12.977,31.331s4.609,22.961,12.977,31.33c8.368,8.369,19.495,12.977,31.33,12.977
			s22.961-4.609,31.329-12.977l86.184-86.184v241.586c0,8.157,6.613,14.769,14.769,14.769h177.231
			c8.157,0,14.769-6.613,14.769-14.769V34.462C482.462,15.459,467.002,0,448,0z M73.846,192.985
			c-8.144,0-14.769-6.625-14.769-14.769s6.625-14.769,14.769-14.769h142.906c-1.018,4.845-1.538,9.794-1.538,14.769
			c0,4.975,0.52,9.924,1.538,14.769H73.846z M168.621,320.942c-2.789,2.789-6.498,4.325-10.443,4.325
			c-3.945,0-7.653-1.536-10.444-4.325c-2.789-2.789-4.325-6.498-4.325-10.444c0-3.944,1.536-7.653,4.325-10.443l77.533-77.533h4.923
			c0.065,0.089,0.136,0.172,0.202,0.261c0.24,0.323,0.492,0.635,0.736,0.954c0.442,0.574,0.885,1.148,1.344,1.709
			c0.349,0.427,0.71,0.845,1.068,1.264c0.364,0.426,0.727,0.853,1.101,1.27c0.441,0.494,0.894,0.979,1.348,1.461
			c0.298,0.317,0.597,0.633,0.901,0.945c0.528,0.542,1.064,1.073,1.608,1.598c0.234,0.226,0.47,0.451,0.707,0.674
			c0.613,0.578,1.236,1.146,1.869,1.703c0.164,0.145,0.33,0.287,0.495,0.429c0.706,0.611,1.421,1.212,2.15,1.797
			c0.071,0.057,0.144,0.112,0.215,0.169c1.654,1.317,3.358,2.574,5.122,3.749L168.621,320.942z M275.692,221.02
			c-8.344-2.888-15.727-8.224-21.125-15.22c-0.018-0.023-0.034-0.045-0.051-0.068c-0.409-0.532-0.803-1.074-1.189-1.625
			c-0.065-0.093-0.129-0.184-0.193-0.278c-0.388-0.563-0.765-1.133-1.128-1.715c-0.012-0.019-0.024-0.036-0.035-0.055
			c-0.392-0.63-0.768-1.27-1.128-1.92c-3.611-6.5-5.672-13.976-5.672-21.923c0-19.806,12.778-36.683,30.523-42.82V221.02z
			 M452.923,482.462H305.231V448h147.692V482.462z M452.923,418.462H305.231v-384c0-2.715,2.208-4.923,4.923-4.923H448
			c2.715,0,4.923,2.208,4.923,4.923V418.462z"/>
	</g>
</g>
<g>
	<g>
		<path d="M418.462,83.692h-78.769c-8.157,0-14.769,6.613-14.769,14.769v39.385c0,8.157,6.613,14.769,14.769,14.769h78.769
			c8.157,0,14.769-6.613,14.769-14.769V98.462C433.231,90.305,426.618,83.692,418.462,83.692z M403.692,123.077h-49.231v-9.846
			h49.231V123.077z"/>
	</g>
</g>
<g>
</g>
<g>
</g>
<g>
</g>
<g>
</g>
<g>
</g>
<g>
</g>
<g>
</g>
<g>
</g>
<g>
</g>
<g>
</g>
<g>
</g>
<g>
</g>
<g>
</g>
<g>
</g>
<g>
</g>
</svg>
