<svg xmlns="http://w3.org/2000/svg" style="position: absolute; width: 0; height: 0; overflow: hidden;" version="1.1"
	xmlns:href="http://w3.org/1999/xlink">
	<defs>
	<symbol id="icon-location" viewBox="0 0 32 32" >
		<title>icon</title>
		<path d="M16 0c-5.523 0-10 4.477-10 10 0 10 10 22 10 22s10-12 10-22c0-5.523-4.477-10-10-10zM16 16.125c-3.383 0-6.125-2.742-6.125-6.125s2.742-6.125 6.125-6.125 6.125 2.742 6.125 6.125-2.742 6.125-6.125 6.125zM12.125 10c0-2.14 1.735-3.875 3.875-3.875s3.875 1.735 3.875 3.875c0 2.14-1.735 3.875-3.875 3.875s-3.875-1.735-3.875-3.875z" ></path>
	</symbol>

	<symbol id="icon-phone" viewBox="0 0 32 32" >
		<title>icon</title>
		<path d="M22 20c-2 2-2 4-4 4s-4-2-6-4-4-4-4-6 2-2 4-4-4-8-6-8-6 6-6 6c0 4 4.109 12.109 8 16s12 8 16 8c0 0 6-4 6-6s-6-8-8-6z" ></path>
	</symbol>
	</defs>

</svg>